<svg width="24" height="28" viewBox="0 0 24 28" fill="none" xmlns="http://www.w3.org/2000/svg">
<path fill-rule="evenodd" clip-rule="evenodd" d="M8.24999 0.937499C8.24999 0.419733 8.66971 0 9.18749 0H12H14.8125C15.3302 0 15.75 0.419733 15.75 0.937499C15.75 1.45526 15.3302 1.875 14.8125 1.875H12.9375V3.97353C14.9969 4.13266 16.9106 4.81166 18.5475 5.87947C18.5843 5.82845 18.6255 5.77972 18.6713 5.73385L20.5463 3.85886C21.0039 3.40121 21.7459 3.40121 22.2036 3.85886C22.6613 4.31651 22.6613 5.05848 22.2036 5.51613L20.3756 7.34403C22.6116 9.52358 24 12.5684 24 15.9374C24 22.5648 18.6274 27.9375 12 27.9375C5.37256 27.9375 0 22.5648 0 15.9374C0 9.6255 4.87323 4.45181 11.0625 3.97353V1.875H9.18749C8.66971 1.875 8.24999 1.45526 8.24999 0.937499ZM1.875 15.9374C1.875 10.3456 6.4081 5.81245 12 5.81245C17.5918 5.81245 22.125 10.3456 22.125 15.9374C22.125 21.5293 17.5918 26.0625 12 26.0625C6.4081 26.0625 1.875 21.5293 1.875 15.9374ZM12 15.9374V7.68745C7.44363 7.68745 3.74999 11.3811 3.74999 15.9374C3.74999 20.4937 7.44363 24.1875 12 24.1875C14.2781 24.1875 16.3406 23.264 17.8335 21.771L12 15.9374Z" fill="#202024"/>
</svg>
