<svg width="21" height="26" viewBox="0 0 21 26" fill="none" xmlns="http://www.w3.org/2000/svg">
<path fill-rule="evenodd" clip-rule="evenodd" d="M1.59525 12.3121C1.59525 18.1953 4.97316 22.2029 8.7663 23.0324C9.20036 23.1273 9.4913 23.6485 9.41614 24.1968C9.34098 24.7449 8.92819 25.1123 8.49413 25.0174C4.0381 24.043 0 19.3002 0 12.3121C-1.5304e-06 9.34227 1.06994 7.0084 2.31941 5.23296C3.21446 3.96114 4.23846 2.9285 5.062 2.13743H2.55763C2.13502 2.13743 1.79243 1.7048 1.79243 1.17113C1.79243 0.637464 2.13502 0.204834 2.55763 0.204834H7.14885C7.57145 0.204834 7.91405 0.637464 7.91405 1.17113V6.96891C7.91405 7.50258 7.57145 7.93521 7.14885 7.93521C6.72624 7.93521 6.38364 7.50258 6.38364 6.96891V3.40218L6.38133 3.40438C5.50675 4.23735 4.43779 5.2554 3.51182 6.57115C2.41832 8.12497 1.59525 10.0022 1.59525 12.3121ZM18.5945 13.0975C18.5945 7.27645 15.2882 3.29231 11.5439 2.40465C11.1109 2.30201 10.8258 1.77559 10.9071 1.22884C10.9884 0.682107 11.4052 0.322104 11.8382 0.424744C16.2369 1.46757 20.1897 6.18434 20.1897 13.0975C20.1897 16.0673 19.1198 18.4011 17.8703 20.1766C16.9752 21.4485 15.9512 22.481 15.1277 23.2722H17.6322C18.0547 23.2722 18.3974 23.7048 18.3974 24.2385C18.3974 24.7721 18.0547 25.2048 17.6322 25.2048H13.0409C12.6183 25.2048 12.2757 24.7721 12.2757 24.2385V18.4408C12.2757 17.907 12.6183 17.4744 13.0409 17.4744C13.4635 17.4744 13.8061 17.907 13.8061 18.4408V22.0074L13.8085 22.005C14.6831 21.1721 15.7519 20.1542 16.6778 18.8385C17.7715 17.2846 18.5945 15.4074 18.5945 13.0975Z" fill="black"/>
</svg>
